<?xml version="1.0" encoding="utf-8"?>
<!-- Generator: Adobe Illustrator 27.3.1, SVG Export Plug-In . SVG Version: 6.00 Build 0)  -->
<svg version="1.1" id="Layer_1" xmlns="http://www.w3.org/2000/svg" xmlns:xlink="http://www.w3.org/1999/xlink" x="0px" y="0px"
	 viewBox="0 0 35.8 49.6" style="enable-background:new 0 0 35.8 49.6;" xml:space="preserve">
<g>
	<g>
		<g>
			<g>
				<path d="M18.7,49.6c-0.2,0-0.5,0-0.7,0c-0.2,0-0.5,0-0.7,0C8.3,49.6,2.5,38,0.2,28c-1-4.2,0.9-9.1,4.6-11.9
					c3.1-2.3,6.8-2.7,10.1-0.8c1.6,0.9,4.5,0.9,6.1,0l0,0c3.2-1.7,6.8-1.5,9.7,0.6c3.7,2.6,5.8,7.6,5,12.1
					C34.4,36.3,28.5,49.6,18.7,49.6z M18,47.5L18,47.5c0.3,0,0.5,0,0.7,0c8.1,0,13.7-11.7,15.1-20c0.6-3.7-1.1-7.9-4.2-10.1
					c-2.4-1.7-5.1-1.9-7.6-0.5c-2.2,1.2-5.8,1.2-8,0c-3.6-1.9-6.5-0.4-8,0.7c-3,2.3-4.6,6.3-3.8,9.8c1.7,7.4,6.7,20,15.1,20
					C17.5,47.6,17.7,47.6,18,47.5L18,47.5z"/>
			</g>
		</g>
		<g>
			<g>
				<path d="M9.4,16c-0.4,0-0.7-0.2-0.9-0.5l-2.9-5.4C5.4,9.7,5.5,9.2,5.8,8.9C6.1,8.6,6.6,8.5,7,8.7l3.7,2.2l0.8-5.5
					c0.1-0.4,0.4-0.8,0.8-0.8c0.4-0.1,0.9,0.2,1.1,0.6l2.5,5.1l3.7-8.1c0.2-0.4,0.6-0.6,1-0.6C21,1.7,21.4,2,21.5,2.4l1.6,9l7.2-1.8
					c0.4-0.1,0.9,0.1,1.1,0.5c0.2,0.4,0.1,0.9-0.2,1.2l-4.5,4.3c-0.4,0.4-1,0.4-1.4,0c-0.4-0.4-0.4-1,0-1.4l1.8-1.7l-4.6,1.1
					c-0.3,0.1-0.6,0-0.8-0.1c-0.2-0.2-0.4-0.4-0.4-0.7l-1.2-6.9L16.8,13c-0.2,0.4-0.5,0.6-0.9,0.6c0,0,0,0,0,0
					c-0.4,0-0.7-0.2-0.9-0.6L13,9l-0.5,3.8c0,0.3-0.3,0.6-0.6,0.8c-0.3,0.1-0.7,0.1-0.9,0l-1.9-1.2l1.2,2.3c0.3,0.5,0.1,1.1-0.4,1.4
					C9.7,16,9.5,16,9.4,16z"/>
			</g>
		</g>
	</g>
	<g>
		<g>
			<g>
				<path d="M8,25.6c-0.6,0-1-0.4-1-1v-3c0-0.6,0.4-1,1-1s1,0.4,1,1v3C9,25.1,8.5,25.6,8,25.6z"/>
			</g>
		</g>
		<g>
			<g>
				<path d="M18,25.6c-0.6,0-1-0.4-1-1v-3c0-0.6,0.4-1,1-1s1,0.4,1,1v3C19,25.1,18.5,25.6,18,25.6z"/>
			</g>
		</g>
		<g>
			<g>
				<path d="M28,25.6c-0.6,0-1-0.4-1-1v-3c0-0.6,0.4-1,1-1s1,0.4,1,1v3C29,25.1,28.5,25.6,28,25.6z"/>
			</g>
		</g>
	</g>
	<g>
		<g>
			<path d="M13,35.6c-0.6,0-1-0.4-1-1v-3c0-0.6,0.4-1,1-1s1,0.4,1,1v3C14,35.1,13.5,35.6,13,35.6z"/>
		</g>
	</g>
	<g>
		<g>
			<path d="M24,35.6c-0.6,0-1-0.4-1-1v-3c0-0.6,0.4-1,1-1c0.6,0,1,0.4,1,1v3C25,35.1,24.5,35.6,24,35.6z"/>
		</g>
	</g>
	<g>
		<g>
			<path d="M18,45.6c-0.6,0-1-0.4-1-1v-3c0-0.6,0.4-1,1-1s1,0.4,1,1v3C19,45.1,18.5,45.6,18,45.6z"/>
		</g>
	</g>
</g>
</svg>
