<?xml version="1.0" encoding="utf-8"?>
<!-- Generator: Adobe Illustrator 27.3.1, SVG Export Plug-In . SVG Version: 6.00 Build 0)  -->
<svg version="1.1" id="Layer_1" xmlns="http://www.w3.org/2000/svg" xmlns:xlink="http://www.w3.org/1999/xlink" x="0px" y="0px"
	 viewBox="0 0 74 79.5" style="enable-background:new 0 0 74 79.5;" xml:space="preserve">
<g transform="translate(0.000000,100.000000) scale(0.100000,-0.100000)">
	<path d="M202,783c-5-7-12-22-16-34c-3-12-18-26-31-32c-14-6-25-16-25-21c0-6-11-22-25-37c-69-74-41-202,66-298c74-68,146-83,226-47
		c52,24,87,75,108,158c18,71,9,151-23,207c-21,37-95,77-157,84c-25,2-50,11-56,18C255,798,216,799,202,783z M304,731
		c28,7,33-4,16-37c-8-14-7-25,5-43c19-29,7-40-30-26c-23,9-30,7-47-15c-24-30-38-24-38,16c0,18-5,29-14,29c-7,0-19,7-26,15
		c-10,12-8,16,12,25c13,7,29,25,36,43l12,31l24-23C271,730,284,726,304,731z M425,693c37-29,55-76,55-144c0-78-18-131-60-175
		c-45-48-93-58-157-34C144,386,61,550,120,625c15,20,23,23,37,14c9-6,21-25,25-42c11-41,42-50,79-23c16,12,34,19,40,16
		c18-11,57,4,64,25c3,10,2,28-4,38c-14,26-3,62,19,62C389,715,410,705,425,693z"/>
	<path d="M402,573c2-13,10-23,18-23s16,10,18,23c3,17-2,22-18,22S399,590,402,573z"/>
	<path d="M295,526c-8-15,14-53,28-48c18,6,15,51-5,55C309,535,299,531,295,526z"/>
	<path d="M385,485c-9-15,5-52,18-47c15,5,16,49,0,54C397,494,389,491,385,485z"/>
</g>
</svg>
