<?xml version="1.0" encoding="utf-8"?>
<!-- Generator: Adobe Illustrator 27.3.1, SVG Export Plug-In . SVG Version: 6.00 Build 0)  -->
<svg version="1.1" id="Layer_1" xmlns="http://www.w3.org/2000/svg" xmlns:xlink="http://www.w3.org/1999/xlink" x="0px" y="0px"
	 viewBox="0 0 100 75.4" style="enable-background:new 0 0 100 75.4;" xml:space="preserve">
<g>
	<path d="M26.8,38.6c0.3,0.2,0.7,0.4,1.1,0.7c0.4,0.2,1.1,0.1,1.3-0.3c0.2-0.4,0.1-0.9-0.3-1.3c-0.3-0.2-0.7-0.4-1.1-0.7
		c-0.4-0.2-1.1-0.1-1.3,0.3C26.1,37.9,26.4,38.4,26.8,38.6z"/>
	<path d="M25.2,43.8c0.4,0.2,1.1,0.1,1.3-0.3s0.1-0.9-0.3-1.3c-0.4-0.2-0.8-0.4-1.3-0.6c-0.4-0.2-0.9-0.1-1.3,0.3
		c-0.2,0.4-0.1,0.9,0.3,1.3C24.4,43.3,24.8,43.6,25.2,43.8z"/>
	<path d="M21.9,50c0.4,0.2,1.1,0.1,1.3-0.3c0.2-0.4,0.1-0.9-0.3-1.3c-0.4-0.3-0.9-0.5-1.4-0.8c-0.4-0.2-1.1-0.1-1.3,0.3
		c-0.2,0.4-0.1,0.9,0.3,1.3C21,49.4,21.5,49.6,21.9,50z"/>
	<path d="M17.5,52.3c-0.3-0.1-0.7-0.3-1.1-0.4c-0.4-0.2-0.9-0.1-1.3,0.3c-0.2,0.4-0.1,1.1,0.3,1.3c0.3,0.1,0.7,0.3,1.1,0.4
		c0.4,0.2,0.9,0.1,1.3-0.3C18.1,53.1,18,52.5,17.5,52.3z"/>
	<path d="M12.9,56.4c-0.3-0.3-0.9-0.4-1.3,0c-0.3,0.3-0.4,0.9,0,1.3c0.4,0.3,0.7,0.6,1.2,0.9c0.3,0.3,0.9,0.4,1.3,0
		c0.3-0.3,0.4-0.9,0-1.3C13.6,57.1,13.2,56.8,12.9,56.4z"/>
	<path d="M26.3,49c-0.2,0.4-0.1,0.9,0.3,1.3c0.4,0.2,0.7,0.5,1.2,0.7c0.4,0.3,1.1,0.1,1.3-0.3c0.2-0.4,0.1-0.9-0.3-1.3
		c-0.4-0.2-0.7-0.5-1.2-0.7C27.1,48.4,26.5,48.6,26.3,49z"/>
	<path d="M21.1,58.4c0.1-0.4-0.1-1.1-0.6-1.1c-0.3-0.1-0.7-0.1-1.1-0.2s-0.9,0.1-1.1,0.6c-0.1,0.4,0.1,1.1,0.6,1.1
		c0.3,0.1,0.7,0.1,1.1,0.2C20.5,59,21,58.8,21.1,58.4z"/>
	<path d="M25.1,54.4c-0.3-0.1-0.6-0.1-0.9-0.2c-0.4-0.1-0.9,0.1-1.1,0.6c-0.1,0.4,0.1,0.9,0.6,1.1c0.3,0.1,0.6,0.1,0.9,0.2
		c0.4,0.1,0.9-0.1,1.1-0.6C25.8,55.1,25.5,54.6,25.1,54.4z"/>
	<path d="M31.4,44.9c0.3-0.3,0.3-0.9,0-1.3s-0.6-0.6-0.9-0.9c-0.3-0.3-0.9-0.3-1.3,0c-0.3,0.3-0.3,0.9,0,1.3
		c0.3,0.3,0.6,0.6,0.9,0.9C30.5,45.2,31.1,45.2,31.4,44.9z"/>
	<path d="M35.6,45.8c0.3,0.3,0.9,0.4,1.3,0c0.3-0.3,0.4-0.9,0-1.3c-0.3-0.3-0.6-0.5-0.9-0.8s-0.9-0.4-1.3,0c-0.3,0.3-0.3,0.9,0,1.3
		C35,45.2,35.3,45.4,35.6,45.8z"/>
	<path d="M35.1,49.4c-0.3-0.2-0.7-0.4-1.1-0.7c-0.4-0.2-1.1-0.1-1.3,0.3c-0.2,0.4-0.1,0.9,0.3,1.3c0.3,0.2,0.7,0.4,1.1,0.7
		c0.4,0.3,0.9,0.1,1.3-0.3C35.6,50.3,35.5,49.8,35.1,49.4z"/>
	<path d="M22.7,62c-0.5-0.1-1.1-0.3-1.6-0.4c-0.4-0.1-0.9,0.2-1.1,0.6c-0.1,0.5,0.2,0.9,0.6,1.1c0.5,0.1,1.1,0.3,1.6,0.4
		c0.4,0.1,0.9-0.2,1.1-0.6C23.4,62.7,23.2,62.1,22.7,62z"/>
	<path d="M32,57.1c0.3-0.3,0.4-0.9,0-1.3c-0.4-0.3-0.7-0.6-1.2-0.9c-0.3-0.3-0.9-0.4-1.3,0c-0.3,0.3-0.4,0.9,0,1.3
		c0.4,0.3,0.7,0.6,1.2,0.9C31.1,57.4,31.6,57.5,32,57.1z"/>
	<path d="M37.6,57.2c0-0.5-0.4-0.8-0.9-0.9c-0.3,0-0.6,0-0.8,0c-0.4,0-0.9,0.4-0.9,0.9s0.4,0.8,0.9,0.9c0.3,0,0.6,0,0.8,0
		C37.2,58.2,37.6,57.7,37.6,57.2z"/>
	<path d="M33,62.3c-0.4,0-0.8-0.1-1.4-0.1c-0.4,0-0.9,0.4-0.9,0.9s0.4,0.8,0.9,0.9c0.4,0,0.8,0.1,1.4,0.1c0.4,0,0.9-0.4,0.9-0.9
		S33.5,62.4,33,62.3z"/>
	<path d="M28.1,59c-0.3,0-0.7-0.1-1.1-0.1c-0.5-0.1-0.9,0.4-0.9,0.8c0,0.5,0.4,0.8,0.9,0.9c0.3,0,0.7,0.1,1.1,0.1
		c0.4,0.1,0.9-0.4,0.9-0.9S28.7,59,28.1,59z"/>
	<path d="M39.1,60.8c-0.4,0.1-0.7,0.1-1.2,0.2c-0.4,0.1-0.7,0.6-0.6,1.1c0.2,0.5,0.6,0.7,1.1,0.6c0.4-0.1,0.7-0.1,1.2-0.2
		c0.4-0.1,0.7-0.6,0.6-1.1C40,60.9,39.6,60.7,39.1,60.8z"/>
	<path d="M99.4,30.4c-0.1-2.7-2.1-4.6-4-6.5s-3.6-3.8-4.9-6l0.7-0.7c0.7-0.7,1.7-1.8,1.7-2.9c0-1.2-0.8-1.8-1.7-2.5
		c-0.7-0.6-1.4-1.3-2.3-1.3c-1.7,0-2.1,1.3-2.7,2.5c-0.6-1.1-1.3-2-1.8-3c-0.4-0.6-1.5-0.5-1.7,0.2c-0.3,1.2-1.2,2.1-1.7,3.2
		c-2.7-1.8-5.6-3.4-8.5-4.7c-4.8-2.3-10.2-4-15.5-4c-0.8,0-1.1,0.9-0.6,1.6c1.2,1.5,2.7,2.4,4.3,3.2c0.6,0.3,1.4,0.6,2.1,0.9
		c-2.3-0.1-4.6-0.3-6.9-0.4c-1.2-0.1-2.6-0.2-3.8,0.2c-0.8,0.3-1.8,0.7-2.6,1.2c-0.7,0.4-1.2,1.3-0.4,1.9c0.7,0.6,2.1,0.7,2.9,0.8
		c0.5,0.1,0.9,0.1,1.5,0.1c-2.8,1.9-5,4.5-6.8,7.4c-1.3,2.1-2.4,4.2-3.5,6.4c-1.6,3.2-2.8,6.3-3.4,9.9c-0.2,1.3-0.3,2.5-0.4,3.7
		c-0.5-0.6-1.1-1.2-1.7-1.7c-2.3-2.1-4.7-4.3-7.7-5.6c-0.3-0.1-0.7-0.3-1.1-0.4c0.1-0.3,0-0.6-0.2-0.8c-1.5-1.2-3.4-2.4-5.3-2.5
		c-1.2,0-2.2,0.6-3.2,1.1c-1.2,0.6-2.3,1.3-3.6,1.8c-0.6,0.2-1.3,0.4-1.8,0.6c-0.5,0.1-1.2,0.2-1.7,0.4c-0.8,0.4-0.8,1.2-0.7,1.9
		c0.1,0.4,0.1,0.9,0.2,1.4c0,0.1,0.1,0.2,0.1,0.3l-0.3-0.3c-0.3-0.3-0.5-0.8-0.9-1.1c-0.5-0.3-1.3-0.2-1.8-0.1
		c-0.7,0.2-1.4,0.7-2,1.2c-0.8,0.5-1.4,1.7-0.5,2.4c0.6,0.5,1.5,0.8,2.2,1.2c0.2,0.1,0.5,0.2,0.8,0.2c-1,0.4-2,1-3.2,1.7
		c-3.2,2.1-5.7,4.8-6.5,8.6c-0.1,0.6,0.4,1.4,1.1,1.1c1.2-0.4,2-1.2,2.8-2c-0.6,1.5-1.3,2.9-1.5,4.5c-0.1,0.9,0.2,4.3,1.9,3
		C5.5,58,5.9,57,6.2,56.2c0.2-0.5,0.4-1.2,0.7-1.7c1.7,6.2,7.9,10.3,14,12c6.4,1.8,14.2,1.8,20.2-1.4c0.9-0.5,1.9-1.2,2.6-2
		c0.3-0.4,0.6-0.9,0.8-1.6c0.7,1.1,1.5,2,2.4,2.8c1.3,1.2,2.7,1.7,4.3,2c4.8,0.8,10,0.1,14.6-1.2c6.6-1.8,12.8-5,18.1-9.5
		c1.5-1.3,2.8-2.5,4.1-3.9c3.7-4,6.5-8.9,7.5-14.3c0.1-0.5,0.1-1.1,0.2-1.6c0.2,0.3,0.4,0.7,0.7,1.1c0.3,0.5,1.3,0.7,1.6,0
		C98.7,35.3,99.5,32.8,99.4,30.4z M41.8,62.7c-0.6,0.5-1.4,0.9-2.1,1.4c-2.3,1.2-4.9,1.7-7.5,2c-6.7,0.7-14.4-0.7-19.5-5.4
		c-1.8-1.6-3.2-3.5-3.9-5.7c0.3,0.2,0.7,0.3,1.1,0.1c0.7-0.4,1.2-1.3,1.5-2.1c0.5-1.2,0.9-2.3,1.4-3.5c0.4-1.1,0.7-2.2,1.2-3.3
		c0.1-0.1,0.1-0.3,0.2-0.4c0.2,0.4,0.6,0.8,0.7,1.1c0.4,0.8,1.6,0.4,1.7-0.4c0-0.7,0.2-1.5,0.4-2.2c0.1-0.3,0.2-0.6,0.3-0.8
		c0.1-0.2,0.1-0.3,0.2-0.5c0.4,0,1.1,0.2,1.5,0.2c0.5,0.1,1.2,0.1,1.7,0.2c0.8,0.2,1.3-0.6,1.1-1.4c-0.4-1.2-1.3-2.1-2.2-2.8
		c1.8-0.5,3.6-0.9,5.1-1.7c0.3-0.2,0.5-0.4,0.4-0.7c0-0.3-0.1-0.6-0.4-0.7L23,35.4c-0.1,0-0.2-0.1-0.2-0.1c0.1,0,0.1,0,0.2,0
		c0.6-0.1,1.3-0.2,1.9-0.3c0.5,0,0.9-0.1,1.4-0.2c0.6,0.1,1.3,0.2,1.4,0.3c0.6,0.1,1.3,0.3,1.9,0.6c2.7,1.3,5.1,3.4,7.4,5.5
		c0.5,0.5,1.1,0.9,1.5,1.5c0.3,0.4,0.8,0.8,1.2,1.4c0,1.5,0.1,3,0.3,4.5c-0.2-0.1-0.5-0.1-0.7,0.1c-0.4,0.2-0.6,0.8-0.3,1.3
		c0.2,0.3,0.4,0.6,0.6,0.9c0.2,0.3,0.5,0.5,0.9,0.4c0.1,0.6,0.3,1.3,0.4,2c-0.2-0.1-0.3-0.1-0.5,0c-0.4,0.1-0.8,0.6-0.6,1.1
		c0.1,0.4,0.3,0.8,0.4,1.3c0.2,0.4,0.6,0.7,1.1,0.6c0.2-0.1,0.3-0.1,0.4-0.3c0.3,0.7,0.5,1.6,0.9,2.3c0.1,0.2,0.2,0.4,0.2,0.6v0.2
		c0.1,0.2,0.2,0.4,0.3,0.6c0,0.1,0.1,0.1,0.1,0.2C42.8,60.9,42.5,62,41.8,62.7z M89.1,48c-0.7,1.1-1.6,2-2.4,2.9
		c-4.7,5-10.5,8.9-17,11.5c-4.8,1.8-10,3-15.1,2.8c-1.6,0-3.3-0.2-4.8-0.7S47,62.4,46,60.9l-0.9-1.6c-0.1-0.4-0.3-0.7-0.5-1.1
		c-0.1-0.1-0.1-0.2-0.2-0.4c-1.3-3.2-1.8-6.4-2.2-9.8c-0.1-0.8-0.2-1.7-0.4-2.5c-0.1-0.7-0.1-1.4-0.4-2V43c0-3.6,0.6-7,1.8-10.4
		c0.9-2.5,2.2-4.9,3.5-7.2c2-3.7,4.2-7.4,7.7-9.8c0.7-0.5,1.5-0.9,2.3-1.3c0.6,0.2,1.4,0.4,2,0.6c1.3,0.4,2.5,0.8,3.8,1.4
		c-0.3,0.1-0.5,0.1-0.8,0.2c-0.8,0.2-1.8,0.4-2.6,0.6c-0.3,0.1-0.7,0.2-1.1,0.2h-0.3c-0.7-0.1-1.2,1.1-0.6,1.6
		c0.9,0.8,2.5,1.1,3.8,1.3c2,0.3,3.9,0.4,5.9,0.5c1.8,0.1,3.6,0.1,5.4,0.3c0.5,0,0.9,0.2,1.4,0.2c0.1,0,0.1,0,0.1,0
		c-0.1,0.1-0.2,0.2-0.3,0.3c-0.6,0.6-1.2,1.3-1.8,1.9c-0.6,0.6,0,1.7,0.8,1.5c1.2-0.3,2.3-0.4,3.5-0.4h1.7c0.5,0,1.3-0.1,1.4,0.5
		c0.1,0.3,0,0.8,0.1,1.2c0,0.4,0.1,0.7,0.2,1.2c0.1,0.8,0.3,1.8,0.4,2.7c0,0.8,0.9,1.1,1.6,0.6c1.7-1.4,3-3.4,3.6-5.5
		c1.7,2.6,3.2,5.4,5.3,7.7c0.4,0.4,1.4,0.3,1.5-0.4c0.2-1.4,0.3-2.7,0.4-4.1c0-0.1,0-0.2,0.1-0.3c0.3,0.4,0.6,0.9,0.9,1.5
		c0.4,0.8,0.8,1.7,1.2,2.5c0.1,0.8,0.1,1.4,0.1,2C93.9,39.1,91.9,44,89.1,48z"/>
	<path d="M54.9,24.2c0.4,0.3,0.9,0.1,1.3-0.3c0.4-0.5,0.7-1.1,1.2-1.7c0.3-0.4,0.1-0.9-0.3-1.3c-0.4-0.3-0.9-0.1-1.3,0.3
		c-0.4,0.5-0.7,1.1-1.2,1.7C54.3,23.4,54.5,24,54.9,24.2z"/>
	<path d="M62.4,27c0.5-0.5,0.9-1.2,1.5-1.7c0.3-0.4,0.3-0.9,0-1.3c-0.3-0.3-0.9-0.4-1.3,0c-0.5,0.5-0.9,1.2-1.5,1.7
		c-0.3,0.4-0.3,0.9,0,1.3C61.4,27.3,62.1,27.3,62.4,27z"/>
	<path d="M68.3,31.1c0.7-0.5,1.5-1.1,2.2-1.7c0.4-0.3,0.6-0.7,0.3-1.3c-0.2-0.4-0.8-0.6-1.3-0.3c-0.7,0.5-1.5,1.1-2.2,1.7
		c-0.4,0.3-0.6,0.7-0.3,1.3C67.3,31.2,68,31.4,68.3,31.1z"/>
	<path d="M77.5,33.4c0.4-0.3,0.3-0.9,0-1.3c-0.4-0.4-0.8-0.3-1.3,0c-0.6,0.5-1.4,1.1-2,1.6c-0.4,0.3-0.3,0.9,0,1.3
		c0.4,0.4,0.8,0.3,1.3,0C76.3,34.4,76.9,33.9,77.5,33.4z"/>
	<path d="M83.2,36.5c0.4-0.4,0.8-0.8,1.3-1.3c0.3-0.3,0.3-0.9,0-1.3c-0.3-0.3-0.9-0.3-1.3,0c-0.4,0.4-0.8,0.8-1.3,1.3
		c-0.3,0.3-0.3,0.9,0,1.3C82.2,36.8,82.9,36.8,83.2,36.5z"/>
	<path d="M89.9,37.8c-0.4-0.2-1.1-0.1-1.3,0.3c-0.3,0.7-0.7,1.4-1.1,2.1c-0.2,0.4-0.1,0.9,0.3,1.3c0.4,0.2,1.1,0.1,1.3-0.3
		c0.3-0.7,0.7-1.4,1.1-2.1C90.4,38.6,90.3,38,89.9,37.8z"/>
	<path d="M56,29.9c0.4-0.5,0.7-1.1,1.2-1.7c0.3-0.4,0.1-0.9-0.3-1.3c-0.4-0.3-0.9-0.1-1.3,0.3c-0.4,0.5-0.7,1.1-1.2,1.7
		c-0.3,0.4-0.1,0.9,0.3,1.3C55.1,30.5,55.7,30.3,56,29.9z"/>
	<path d="M49.9,27.2c0.5-0.7,1.2-1.6,1.7-2.3c0.3-0.4,0.1-1.1-0.3-1.3c-0.4-0.3-0.9-0.1-1.3,0.3c-0.5,0.7-1.2,1.6-1.7,2.3
		c-0.3,0.4-0.1,1.1,0.3,1.3C49,27.8,49.6,27.6,49.9,27.2z"/>
	<path d="M62.7,33.8c0.4-0.6,0.7-1.2,1.2-1.8c0.3-0.4,0.1-0.9-0.3-1.3c-0.4-0.2-0.9-0.1-1.3,0.3c-0.4,0.6-0.7,1.2-1.2,1.8
		c-0.3,0.4-0.1,1.1,0.3,1.3C61.9,34.3,62.4,34.2,62.7,33.8z"/>
	<path d="M69.6,35.6c-0.4,0.6-0.9,1.4-1.4,2c-0.3,0.4-0.1,0.9,0.3,1.3c0.4,0.2,0.9,0.1,1.3-0.3c0.4-0.6,0.9-1.4,1.4-2
		c0.3-0.4,0.1-0.9-0.3-1.3C70.5,34.9,70,35.2,69.6,35.6z"/>
	<path d="M77,41.6c0.4-0.8,0.9-1.8,1.4-2.6c0.5-1.1-1.1-1.9-1.6-0.9c-0.4,0.8-0.9,1.8-1.4,2.6C75,41.7,76.5,42.6,77,41.6z"/>
	<path d="M83.8,44c0.3-0.7,0.7-1.5,1.1-2.3c0.2-0.4,0.1-0.9-0.3-1.3c-0.4-0.2-1.1-0.1-1.3,0.3c-0.3,0.7-0.7,1.5-1.1,2.3
		c-0.2,0.4-0.1,0.9,0.3,1.3C83,44.5,83.6,44.4,83.8,44z"/>
	<path d="M85.7,45.8c-0.6,0.6-1.4,1.2-2,1.8c-0.3,0.3-0.3,0.9,0,1.3c0.3,0.3,0.9,0.3,1.3,0c0.6-0.6,1.4-1.2,2-1.8
		c0.3-0.3,0.3-0.9,0-1.3C86.7,45.4,86.1,45.4,85.7,45.8z"/>
	<path d="M78.1,47.4c0.4-0.4,0.9-0.8,1.4-1.3c0.3-0.3,0.3-0.9,0-1.3c-0.4-0.3-0.9-0.3-1.3,0c-0.4,0.4-0.9,0.8-1.4,1.3
		c-0.3,0.3-0.3,0.9,0,1.3C77.2,47.9,77.7,47.9,78.1,47.4z"/>
	<path d="M70.8,41.9c-0.4,0.3-0.8,0.6-1.3,0.9c-0.4,0.3-0.6,0.8-0.3,1.3c0.2,0.4,0.8,0.6,1.3,0.3c0.4-0.3,0.8-0.6,1.3-0.9
		c0.4-0.3,0.6-0.8,0.3-1.3C71.7,41.8,71.1,41.6,70.8,41.9z"/>
	<path d="M62.7,38.3c-0.5,0.8-1.1,1.6-1.5,2.4c-0.6,0.9,0.9,1.9,1.6,0.9c0.5-0.8,1.1-1.6,1.5-2.4C64.9,38.2,63.3,37.4,62.7,38.3z"/>
	<path d="M57.3,34.1c0.3-0.4,0.1-1.1-0.3-1.3c-0.4-0.2-0.9-0.1-1.3,0.3c-0.4,0.6-0.7,1.2-1.2,1.8c-0.3,0.4-0.1,0.9,0.3,1.3
		c0.4,0.2,0.9,0.1,1.3-0.3C56.6,35.3,56.9,34.7,57.3,34.1z"/>
	<path d="M46.7,32c-0.5,0.8-1.1,1.6-1.5,2.4c-0.6,0.9,0.9,1.9,1.6,0.9c0.5-0.8,1.1-1.6,1.5-2.4C48.9,31.9,47.4,31.1,46.7,32z"/>
	<path d="M51.1,35.6c-0.5-0.1-0.9,0.2-1.1,0.6c-0.3,0.8-0.6,1.7-0.9,2.5c-0.2,0.4,0.2,0.9,0.6,1.1c0.5,0.1,0.9-0.2,1.1-0.6
		c0.3-0.8,0.6-1.7,0.9-2.5C51.9,36.2,51.6,35.7,51.1,35.6z"/>
	<path d="M56.5,40.4c-0.4,0.5-0.7,1.1-1.2,1.7c-0.3,0.4-0.1,0.9,0.3,1.3c0.4,0.3,0.9,0.1,1.3-0.3c0.4-0.5,0.7-1.1,1.2-1.7
		c0.3-0.4,0.1-0.9-0.3-1.3C57.2,39.9,56.7,40.1,56.5,40.4z"/>
	<path d="M65.6,46.9c-0.3-0.3-0.9-0.3-1.3,0c-0.5,0.4-1.1,0.9-1.5,1.4c-0.3,0.3-0.3,0.9,0,1.3c0.3,0.3,0.9,0.3,1.3,0
		c0.5-0.4,1.1-0.9,1.5-1.4C66.1,47.9,66,47.2,65.6,46.9z"/>
	<path d="M73.2,47.9c0.3-0.3,0.3-0.9,0-1.3c-0.3-0.3-0.9-0.3-1.3,0c-0.5,0.5-1.1,0.9-1.6,1.5c-0.3,0.3-0.3,0.9,0,1.3
		c0.3,0.3,0.9,0.3,1.3,0C72.2,48.8,72.7,48.3,73.2,47.9z"/>
	<path d="M79.4,50.7c-0.6,0.5-1.4,1.1-2,1.6c-0.4,0.3-0.3,0.9,0,1.3c0.4,0.4,0.8,0.3,1.3,0c0.6-0.5,1.4-1.1,2-1.6
		c0.4-0.3,0.3-0.9,0-1.3C80.2,50.4,79.7,50.5,79.4,50.7z"/>
	<path d="M73.4,56.3c-0.6,0.3-1.3,0.7-1.9,1.1c-1.1,0.5-0.1,2.1,0.9,1.6c0.6-0.3,1.3-0.7,1.9-1.1C75.3,57.2,74.5,55.6,73.4,56.3z"/>
	<path d="M58.8,48.7c0.3-0.7,0.7-1.4,1.1-2.1c0.2-0.4,0.1-0.9-0.3-1.3c-0.4-0.2-1.1-0.1-1.3,0.3c-0.3,0.7-0.7,1.4-1.1,2.1
		c-0.2,0.4-0.1,0.9,0.3,1.3C58,49.2,58.6,49.1,58.8,48.7z"/>
	<path d="M51.3,44c-0.4-0.1-1.1,0.1-1.1,0.6c-0.2,0.8-0.3,1.6-0.5,2.4c-0.1,0.5,0.1,0.9,0.6,1.1c0.4,0.1,1.1-0.1,1.1-0.6
		c0.2-0.8,0.3-1.6,0.5-2.4C52,44.6,51.8,44.1,51.3,44z"/>
	<path d="M44.3,42.6c-0.2,0.9-0.4,2-0.6,2.9c-0.2,1.2,1.5,1.6,1.7,0.5c0.2-0.9,0.4-2,0.6-2.9C46.3,42,44.6,41.5,44.3,42.6z"/>
	<path d="M54.4,53.3c0.3-0.8,0.6-1.6,0.9-2.4c0.2-0.4-0.2-0.9-0.6-1.1c-0.5-0.1-0.9,0.2-1.1,0.6c-0.3,0.8-0.6,1.6-0.9,2.4
		c-0.2,0.4,0.2,0.9,0.6,1.1C53.8,54.2,54.2,53.8,54.4,53.3z"/>
	<path d="M46.4,50.2c-0.4,0-0.9,0.4-0.9,0.9c0.1,1.1,0.3,2.1,0.4,3.2c0.1,0.5,0.4,0.8,0.9,0.9c0.4,0,0.9-0.4,0.9-0.9
		c-0.1-1.1-0.3-2.1-0.4-3.2C47.3,50.6,46.9,50.3,46.4,50.2z"/>
	<path d="M61.4,53c-0.5,0.5-0.9,0.9-1.5,1.5c-0.3,0.3-0.3,0.9,0,1.3c0.3,0.3,0.9,0.3,1.3,0c0.5-0.5,0.9-0.9,1.5-1.5
		c0.3-0.3,0.3-0.9,0-1.3C62.3,52.7,61.8,52.7,61.4,53z"/>
	<path d="M68.9,53c-0.5,0.3-1.1,0.5-1.5,0.8c-0.4,0.2-0.5,0.8-0.3,1.3c0.2,0.4,0.8,0.5,1.3,0.3c0.5-0.3,1.1-0.5,1.5-0.8
		c0.4-0.2,0.5-0.8,0.3-1.3C69.8,52.9,69.3,52.8,68.9,53z"/>
	<path d="M68.8,59c-0.7,0.1-1.4,0.1-2.1,0.2c-0.5,0-0.9,0.4-0.9,0.9c0,0.4,0.4,0.9,0.9,0.9c0.7-0.1,1.4-0.1,2.1-0.2
		c0.5,0,0.9-0.4,0.9-0.9C69.6,59.4,69.2,59,68.8,59z"/>
	<path d="M50.1,57.2c-0.4-0.1-1.1,0.1-1.1,0.6c-0.1,0.5-0.2,1.1-0.3,1.6s0.1,0.9,0.6,1.1c0.4,0.1,1.1-0.1,1.1-0.6
		c0.1-0.5,0.2-1.1,0.3-1.6C50.8,57.8,50.6,57.3,50.1,57.2z"/>
	<path d="M56.3,57.8c-0.6,0.1-1.3,0.2-1.8,0.3c-0.5,0.1-0.7,0.6-0.6,1.1c0.1,0.5,0.6,0.7,1.1,0.6c0.6-0.1,1.3-0.2,1.8-0.3
		c0.5-0.1,0.7-0.6,0.6-1.1C57.3,57.9,56.8,57.7,56.3,57.8z"/>
	<path d="M61.3,60.7c-0.7,0.1-1.4,0.3-2.1,0.4c-0.5,0.1-0.7,0.6-0.6,1.1c0.1,0.5,0.6,0.7,1.1,0.6c0.7-0.1,1.4-0.3,2.1-0.4
		c0.5-0.1,0.7-0.6,0.6-1.1C62.3,60.9,61.9,60.6,61.3,60.7z"/>
</g>
</svg>
